<svg id="Layer_1" data-name="Layer 1" xmlns="http://www.w3.org/2000/svg" xmlns:xlink="http://www.w3.org/1999/xlink" width="115" height="50" viewBox="0 0 115 50"><defs><style>.cls-1,.cls-4,.cls-5{fill:none;}.cls-2{fill:#f9c20a;}.cls-3,.cls-6,.cls-7{fill:#fff;}.cls-4,.cls-7,.cls-9{stroke:#333;}.cls-4,.cls-5,.cls-6,.cls-7,.cls-8,.cls-9{stroke-miterlimit:10;}.cls-4,.cls-5,.cls-7{stroke-width:3px;}.cls-5{stroke:url(#New_Pattern_Swatch_2);}.cls-6,.cls-8{stroke:#fff;}.cls-6{stroke-width:8px;}.cls-8{fill:#333;stroke-width:0.5px;}.cls-9{fill:url(#New_Pattern_Swatch_2-3);}</style><pattern id="New_Pattern_Swatch_2" data-name="New Pattern Swatch 2" x="-248.21" y="-371.18" width="31.65" height="24.58" patternUnits="userSpaceOnUse" viewBox="0 0 31.65 24.58"><rect class="cls-1" width="31.65" height="24.58"/><rect class="cls-2" width="31.65" height="24.58"/></pattern><pattern id="New_Pattern_Swatch_2-3" data-name="New Pattern Swatch 2" width="31.65" height="24.58" patternUnits="userSpaceOnUse" viewBox="0 0 31.65 24.58"><rect class="cls-1" width="31.65" height="24.58"/><rect class="cls-2" width="31.65" height="24.58"/></pattern></defs><rect class="cls-3" width="115" height="50"/><ellipse class="cls-4" cx="27.15" cy="17.8" rx="10.32" ry="10.5"/><ellipse class="cls-5" cx="85.25" cy="17.8" rx="10.32" ry="10.5"/><path class="cls-6" d="M265.38,407.59c0-15.27,18.47-27.65,41.27-27.65s41.27,12.38,41.27,27.65" transform="translate(-248.21 -371.18)"/><path class="cls-7" d="M266.19,409.39c0-15.27,18.48-27.65,41.27-27.65s41.27,12.38,41.27,27.65" transform="translate(-248.21 -371.18)"/><path class="cls-8" d="M282.36,390h-2.95v-.92a1.71,1.71,0,0,0-.12-.82.4.4,0,0,0-.37-.18.48.48,0,0,0-.44.24,1.38,1.38,0,0,0-.15.72,2.07,2.07,0,0,0,.17.94,2.35,2.35,0,0,0,.9.76,9.08,9.08,0,0,1,2.67,2.11,6.46,6.46,0,0,1,.25,4.61,2.44,2.44,0,0,1-1.18,1.06,4.71,4.71,0,0,1-2,.42,4.47,4.47,0,0,1-2.18-.49,2.42,2.42,0,0,1-1.19-1.25,6.72,6.72,0,0,1-.28-2.16v-.82h3v1.52a2.14,2.14,0,0,0,.12.9.5.5,0,0,0,.45.2.51.51,0,0,0,.47-.26,1.5,1.5,0,0,0,.15-.75,2.37,2.37,0,0,0-.29-1.44,9.93,9.93,0,0,0-1.49-1.13,13.72,13.72,0,0,1-1.57-1.16,2.66,2.66,0,0,1-.64-1,4.47,4.47,0,0,1-.25-1.63,4.58,4.58,0,0,1,.36-2.09,2.32,2.32,0,0,1,1.16-1,4.49,4.49,0,0,1,1.93-.38,5,5,0,0,1,2.11.41,2.21,2.21,0,0,1,1.16,1,5.49,5.49,0,0,1,.28,2.1Z" transform="translate(-248.21 -371.18)"/><path class="cls-8" d="M292.22,386.2,294,398.65h-3.25l-.17-2.24h-1.14l-.19,2.24H286l1.62-12.45Zm-1.69,8c-.16-1.41-.32-3.16-.48-5.23-.33,2.38-.53,4.13-.61,5.23Z" transform="translate(-248.21 -371.18)"/><path class="cls-8" d="M303.52,386.2l-2.32,7.95v4.5h-2.94v-4.5L296,386.2h2.92a48.76,48.76,0,0,1,.77,4.91c.18-1.33.48-3,.89-4.91Z" transform="translate(-248.21 -371.18)"/><path class="cls-8" d="M311.89,386.2l1.82,12.45h-3.25l-.17-2.24h-1.14l-.19,2.24h-3.29l1.62-12.45Zm-1.69,8c-.16-1.41-.32-3.16-.48-5.23-.32,2.38-.53,4.13-.61,5.23Z" transform="translate(-248.21 -371.18)"/><path class="cls-8" d="M324.93,386.2l-1.83,5.62,2,6.83h-3.28l-1.29-5.33v5.33h-3.18V386.2h3.18V391l1.41-4.84Z" transform="translate(-248.21 -371.18)"/><path class="cls-8" d="M334.56,386.2l1.82,12.45h-3.26l-.17-2.24h-1.14l-.19,2.24h-3.29L330,386.2Zm-1.69,8c-.16-1.41-.32-3.16-.48-5.23-.33,2.38-.53,4.13-.62,5.23Z" transform="translate(-248.21 -371.18)"/><path class="cls-8" d="M268.82,405.1v12.44H266l-1.66-5.65v5.65h-2.66V405.1h2.66l1.78,5.6v-5.6Z" transform="translate(-248.21 -371.18)"/><path class="cls-8" d="M278.69,405.1l1.82,12.44h-3.25l-.18-2.23H276l-.2,2.23h-3.28l1.62-12.44Zm-1.69,8c-.16-1.41-.32-3.15-.48-5.23-.33,2.39-.53,4.13-.61,5.23Z" transform="translate(-248.21 -371.18)"/><path class="cls-9" d="M287.3,405.1l1.42,4.83V405.1h3.18v12.44h-3.18v-5.33l-1.29,5.33h-3.29l2-6.82-1.82-5.62Z" transform="translate(-248.21 -371.18)"/><path class="cls-8" d="M301.35,405.1l1.82,12.44h-3.25l-.17-2.23h-1.14l-.19,2.23h-3.29l1.62-12.44Zm-1.68,8c-.17-1.41-.33-3.15-.49-5.23-.32,2.39-.53,4.13-.61,5.23Z" transform="translate(-248.21 -371.18)"/><path class="cls-8" d="M312.51,405.1v2.49l-2.37,7.46h2.37v2.49h-5.86v-1.8l2.45-8.15h-2.16V405.1Z" transform="translate(-248.21 -371.18)"/><path class="cls-8" d="M322.24,405.1l1.82,12.44h-3.25l-.17-2.23H319.5l-.19,2.23H316l1.62-12.44Zm-1.69,8c-.16-1.41-.32-3.15-.48-5.23-.32,2.39-.53,4.13-.61,5.23Z" transform="translate(-248.21 -371.18)"/><path class="cls-8" d="M339.39,405.1,338,417.54h-4q-.56-2.87-1-6.52c-.12,1-.42,3.22-.88,6.52h-4l-1.43-12.44h3.09l.34,4.34.32,4.2q.18-3.25.88-8.54h3.31c0,.36.16,1.73.34,4.1l.36,4.74q.27-4.51.88-8.84Z" transform="translate(-248.21 -371.18)"/><path class="cls-8" d="M348.47,405.1l1.81,12.44H347l-.17-2.23h-1.14l-.19,2.23h-3.29l1.63-12.44Zm-1.69,8c-.16-1.41-.32-3.15-.49-5.23-.32,2.39-.52,4.13-.61,5.23Z" transform="translate(-248.21 -371.18)"/></svg>