<svg id="Layer_1" data-name="Layer 1" xmlns="http://www.w3.org/2000/svg" xmlns:xlink="http://www.w3.org/1999/xlink" width="222.92" height="95.27" viewBox="0 0 222.92 95.27"><defs><style>.cls-1,.cls-4,.cls-5{fill:none;}.cls-2{fill:#f9c20a;}.cls-3,.cls-6,.cls-7{fill:#fff;}.cls-4,.cls-7,.cls-9{stroke:#333;}.cls-4,.cls-5,.cls-6,.cls-7,.cls-8,.cls-9{stroke-miterlimit:10;}.cls-4,.cls-5,.cls-7{stroke-width:3px;}.cls-5{stroke:url(#New_Pattern_Swatch_2);}.cls-6,.cls-8{stroke:#fff;}.cls-6{stroke-width:8px;}.cls-8{fill:#333;stroke-width:0.5px;}.cls-9{fill:url(#New_Pattern_Swatch_2-3);}</style><pattern id="New_Pattern_Swatch_2" data-name="New Pattern Swatch 2" x="-194.25" y="-348.54" width="31.65" height="24.58" patternUnits="userSpaceOnUse" viewBox="0 0 31.65 24.58"><rect class="cls-1" width="31.65" height="24.58"/><rect class="cls-2" width="31.65" height="24.58"/></pattern><pattern id="New_Pattern_Swatch_2-3" data-name="New Pattern Swatch 2" width="31.65" height="24.58" patternUnits="userSpaceOnUse" viewBox="0 0 31.65 24.58"><rect class="cls-1" width="31.65" height="24.58"/><rect class="cls-2" width="31.65" height="24.58"/></pattern></defs><rect class="cls-3" width="222.92" height="95.27"/><circle class="cls-4" cx="52.63" cy="33.92" r="20"/><circle class="cls-5" cx="165.24" cy="33.92" r="20"/><path class="cls-6" d="M227.53,417.92c0-29.1,35.82-52.68,80-52.68s80,23.58,80,52.68" transform="translate(-194.25 -348.54)"/><path class="cls-7" d="M229.11,421.35c0-29.1,35.82-52.69,80-52.69s80,23.59,80,52.69" transform="translate(-194.25 -348.54)"/><path class="cls-8" d="M260.46,384.35h-5.73v-1.76a3.49,3.49,0,0,0-.22-1.56.8.8,0,0,0-.73-.34.94.94,0,0,0-.85.45,2.69,2.69,0,0,0-.28,1.38,3.84,3.84,0,0,0,.32,1.79,4.54,4.54,0,0,0,1.74,1.45q4.12,2.44,5.19,4a9.24,9.24,0,0,1,1.07,5.06,8.75,8.75,0,0,1-.6,3.73,4.63,4.63,0,0,1-2.29,2,9.08,9.08,0,0,1-3.95.81,8.81,8.81,0,0,1-4.23-.94,4.55,4.55,0,0,1-2.29-2.39,12.24,12.24,0,0,1-.54-4.11v-1.56h5.72v2.89A3.61,3.61,0,0,0,253,397a.91.91,0,0,0,.85.38,1,1,0,0,0,.92-.48,2.74,2.74,0,0,0,.3-1.43,4.45,4.45,0,0,0-.57-2.74,18.59,18.59,0,0,0-2.89-2.16,28.2,28.2,0,0,1-3.05-2.21,5.17,5.17,0,0,1-1.23-1.9,8.35,8.35,0,0,1-.49-3.11,8.68,8.68,0,0,1,.69-4,4.72,4.72,0,0,1,2.25-2,8.9,8.9,0,0,1,3.75-.71,9.85,9.85,0,0,1,4.09.77,4.32,4.32,0,0,1,2.25,2,10.43,10.43,0,0,1,.55,4Z" transform="translate(-194.25 -348.54)"/><path class="cls-8" d="M279.56,377.17l3.53,23.72h-6.3l-.33-4.26h-2.21l-.37,4.26H267.5l3.15-23.72Zm-3.27,15.25q-.46-4-.94-10c-.62,4.54-1,7.86-1.18,10Z" transform="translate(-194.25 -348.54)"/><path class="cls-8" d="M301.47,377.17,297,392.31v8.58h-5.72v-8.58l-4.33-15.14h5.66q1.34,6.94,1.5,9.35c.34-2.53.92-5.65,1.72-9.35Z" transform="translate(-194.25 -348.54)"/><path class="cls-8" d="M317.69,377.17l3.53,23.72h-6.3l-.33-4.26h-2.21l-.37,4.26h-6.37l3.14-23.72Zm-3.26,15.25q-.48-4-.94-10-.94,6.81-1.19,10Z" transform="translate(-194.25 -348.54)"/><path class="cls-8" d="M343,377.17l-3.54,10.71,3.88,13h-6.38l-2.49-10.17v10.17h-6.17V377.17h6.17v9.22l2.74-9.22Z" transform="translate(-194.25 -348.54)"/><path class="cls-8" d="M361.63,377.17l3.53,23.72h-6.31l-.33-4.26h-2.2l-.38,4.26h-6.37l3.15-23.72Zm-3.27,15.25c-.31-2.68-.63-6-.94-10q-.94,6.81-1.18,10Z" transform="translate(-194.25 -348.54)"/><path class="cls-8" d="M234.2,413.17v23.72h-5.41l-3.21-10.78v10.78h-5.15V413.17h5.15L229,423.85V413.17Z" transform="translate(-194.25 -348.54)"/><path class="cls-8" d="M253.33,413.17l3.53,23.72h-6.3l-.33-4.26H248l-.37,4.26h-6.38l3.15-23.72Zm-3.27,15.25q-.47-4-.94-10c-.62,4.54-1,7.86-1.18,10Z" transform="translate(-194.25 -348.54)"/><path class="cls-9" d="M270,413.17l2.75,9.22v-9.22h6.16v23.72h-6.16V426.72l-2.5,10.17h-6.37l3.87-13-3.54-10.71Z" transform="translate(-194.25 -348.54)"/><path class="cls-8" d="M297.27,413.17l3.52,23.72h-6.3l-.33-4.26H292l-.37,4.26h-6.37l3.14-23.72ZM294,428.42c-.31-2.68-.63-6-.94-10-.63,4.54-1,7.86-1.19,10Z" transform="translate(-194.25 -348.54)"/><path class="cls-8" d="M318.9,413.17v4.75l-4.59,14.22h4.59v4.75H307.53v-3.44l4.75-15.53h-4.19v-4.75Z" transform="translate(-194.25 -348.54)"/><path class="cls-8" d="M337.76,413.17l3.52,23.72H335l-.33-4.26h-2.21l-.37,4.26H325.7l3.14-23.72Zm-3.27,15.25c-.31-2.68-.63-6-.94-10q-.94,6.81-1.18,10Z" transform="translate(-194.25 -348.54)"/><path class="cls-8" d="M371,413.17l-2.75,23.72h-7.7c-.7-3.64-1.33-7.79-1.86-12.44q-.37,3-1.73,12.44h-7.65l-2.76-23.72h6l.65,8.28.63,8q.35-6.21,1.71-16.28h6.4q.13,1.05.67,7.83l.68,9q.54-8.61,1.73-16.85Z" transform="translate(-194.25 -348.54)"/><path class="cls-8" d="M388.59,413.17l3.53,23.72h-6.31l-.33-4.26h-2.2l-.37,4.26h-6.38l3.15-23.72Zm-3.27,15.25q-.46-4-.94-10-.94,6.81-1.18,10Z" transform="translate(-194.25 -348.54)"/></svg>